<svg viewBox="639 385.8803 380 65.7394" width="5000" height="864.9921052631579" xmlns="http://www.w3.org/2000/svg" xmlns:xlink="http://www.w3.org/1999/xlink" preserveAspectRatio="none"><defs></defs><style>.aIptOCySncolors-0 {fill:#AE9152;fill-opacity:1;}.aIptOCySncolors-1 {fill:#DDBB4D;fill-opacity:1;}.aIptOCySncolors-2 {fill:#987239;fill-opacity:0.95;}.aIptOCySncolors-3 {fill:#D3DBE5;fill-opacity:1;}.aIptOCySncolors-4 {fill:#353745;fill-opacity:1;}.aIptOCySncolors-5 {fill:#4ED7D9;fill-opacity:1;}.aIptOCySncolors-6 {fill:#8CFEFF;fill-opacity:1;}.aIptOCySncolors-7 {fill:#85EDBE;fill-opacity:1;}.atBXipXk0bfillColor {fill:#BFD9D7;fill-opacity:1;}.atBXipXk0bstrokeColor-str {stroke:#353745;stroke-opacity:1;}.background {fill:#BFD9D7;fill-opacity:1;}.companyName {fill:#353745;fill-opacity:1;}.icon3-str {stroke:#987239;stroke-opacity:0.95;}.text-str {stroke:#353745;stroke-opacity:1;}</style><g opacity="1" transform="rotate(0 639.0162 385.8803)">
</g><g opacity="1" transform="rotate(0 639 385.8803)">
<svg width="65.7395" height="65.7394" x="639" y="385.8803" version="1.1" preserveAspectRatio="none" viewBox="0 0 65.7395 65.7394">
  <rect x="1.314788" y="1.314788" width="63.10992400000001" height="63.109824" class="atBXipXk0bfillColor atBXipXk0bstrokeColor-str" rx="25px" ry="25px" />
</svg>
</g><g opacity="1" transform="rotate(0 646.3373 402.999)">
<svg width="51.0649" height="31.502" x="646.3373" y="402.999" version="1.1" preserveAspectRatio="none" viewBox="3.944340229034424 15.84000015258789 62.111324310302734 38.32002639770508">
  <g transform="matrix(1 0 0 1 0 0)" class="aIptOCySncolors-0"><g><path d="M62.46289,25.38193l-0.00098,0.00098L62.46289,25.38193z"></path><g><g><path d="M29.7002,48.35654c-0.125,0.21191-0.09375,0.49609,0.07031,0.66699c0.15234,0.16504,0.32813,0.18652,0.41992,0.18652     c0.08594,0,0.25098-0.01953,0.39746-0.14941l10.19141-9.18066h-6.12305L29.7002,48.35654z M57.31543,41.72958     c-2.03418,0-3.68945,1.65527-3.68945,3.69043c0,2.0293,1.65527,3.67969,3.68945,3.67969     c2.03516,0,3.69043-1.65039,3.69043-3.67969C61.00586,43.38486,59.35059,41.72958,57.31543,41.72958z"></path><path d="M57.31567,36.67001c-2.27002,0-4.34009,0.88-5.89001,2.31l-2.31995-1.40778l14.27002-11.00226     c0.40991-0.31,0.56995-0.83997,0.3999-1.32996c-0.15991-0.49005-0.60999-0.81-1.12988-0.81H29.58569     c-0.42004,0-0.75,0.33997-0.75,0.75v12.44995c0,0.41003,0.32996,0.75,0.75,0.75h2.46887L27.10571,46.84     c-0.79004,1.34998-0.59009,3.09998,0.47998,4.25c0.69995,0.73999,1.6499,1.12,2.60999,1.12     c0.85999,0,1.70996-0.29999,2.39001-0.90997l14.33813-12.92004h0.60718l2.85474,1.73004     c-1.13013,1.46997-1.81006,3.31-1.81006,5.31c0,4.82001,3.91992,8.73999,8.73999,8.73999s8.73999-3.91998,8.73999-8.73999     C66.05566,40.59,62.13574,36.67001,57.31567,36.67001z M31.58569,50.18002c-0.84009,0.75-2.14001,0.69995-2.90002-0.12     c-0.63-0.66003-0.73999-1.68005-0.28003-2.46002l5.39001-9.22003h10.89001L31.58569,50.18002z M57.31567,50.60001     c-2.85999,0-5.18994-2.32001-5.18994-5.17999s2.32996-5.19,5.18994-5.19s5.18994,2.33002,5.18994,5.19     S60.17566,50.60001,57.31567,50.60001z"></path><path d="M57.31567,41.73001c-2.03003,0-3.68994,1.64996-3.68994,3.69c0,2.02997,1.65991,3.67999,3.68994,3.67999     s3.68994-1.65002,3.68994-3.67999C61.00562,43.37997,59.3457,41.73001,57.31567,41.73001z"></path></g><path d="M29.28809,30.74814c0.21973,0,0.4375-0.09668,0.58496-0.28125c0.25977-0.32324,0.20703-0.79492-0.11621-1.05371    L14.49609,17.19052c-0.13281-0.10742-0.29785-0.16504-0.46875-0.16504H4.69434c-0.41406,0-0.75,0.33594-0.75,0.75    s0.33594,0.75,0.75,0.75h9.06934L28.81934,30.5831C28.95801,30.69443,29.12305,30.74814,29.28809,30.74814z"></path></g><g><path d="M60.90564,22.67001c0,0.08997,0,0.17999-0.00989,0.26001H31.96558c0.70007-1.98004,2.61011-3.36005,4.74011-3.36005    c1.10999,0,2.19006,0.37,3.05994,1.04004c1.21997-1.37,3.19006-1.98004,4.97998-1.53003    C45.4856,17.16,47.35571,15.84,49.46558,15.84c1.72009,0,3.30005,0.87,4.22009,2.28998c0.67004-0.32996,1.41003-0.5,2.18005-0.5    C58.64575,17.62997,60.90564,19.88998,60.90564,22.67001z"></path></g></g></g>
</svg>
</g></svg>