<svg viewBox="639 385.8803 380 65.7394" width="5000" height="864.9921052631579" xmlns="http://www.w3.org/2000/svg" xmlns:xlink="http://www.w3.org/1999/xlink" preserveAspectRatio="none"><defs></defs><style>.aB7crM0kCifillColor {fill:#FFFFFF;fill-opacity:1;}.aB7crM0kCistrokeColor-str {stroke:#D9D9D9;stroke-opacity:1;}.aD6z1nYkhcolor {fill:#FFFFFF;fill-opacity:1;}.aD6z1nYkhstrokeColor-str {stroke:#D9D9D9;stroke-opacity:0.95;}.aIptOCySncolors-0 {fill:#FFFFFF;fill-opacity:1;}.aIptOCySncolors-1 {fill:#D9D9D9;fill-opacity:1;}.aIptOCySncolors-2 {fill:#B4B4B4;fill-opacity:0.95;}.aIptOCySncolors-3 {fill:#A6A6A6;fill-opacity:1;}.aIptOCySncolors-4 {fill:#949494;fill-opacity:1;}.aIptOCySncolors-5 {fill:#848383;fill-opacity:1;}.aIptOCySncolors-6 {fill:#717171;fill-opacity:1;}.aIptOCySncolors-7 {fill:#636363;fill-opacity:1;}.atBXipXk0bfillColor {fill:#FFFFFF;fill-opacity:1;}.atBXipXk0bstrokeColor-str {stroke:#D9D9D9;stroke-opacity:1;}</style><g opacity="0.2" transform="rotate(0 639.0162 385.8803)">
<svg width="379.9838" height="65.7394" x="639.0162" y="385.8803" version="1.1" preserveAspectRatio="none" viewBox="0 0 379.9838 65.7394">
  <rect x="0" y="0" width="379.9838" height="65.7394" class="aB7crM0kCifillColor aB7crM0kCistrokeColor-str" style="stroke-width:0;" rx="25px" ry="25px" />
</svg>
</g><g opacity="0.2" transform="rotate(0 639 385.8803)">
<svg width="65.7395" height="65.7394" x="639" y="385.8803" version="1.1" preserveAspectRatio="none" viewBox="0 0 65.7395 65.7394">
  <rect x="1.314788" y="1.314788" width="63.10992400000001" height="63.109824" class="atBXipXk0bfillColor atBXipXk0bstrokeColor-str" style="stroke-width:2.629576;" rx="25px" ry="25px" />
</svg>
</g><g opacity="1" transform="rotate(0 724.1625 408.2914)">
<svg width="274.0719" height="20.9171" x="724.1625" y="408.2914" version="1.1" preserveAspectRatio="none" viewBox="1.16 -29.68 393.0799999999999 30">
  <g transform="matrix(1 0 0 1 0 0)" class="aD6z1nYkhcolor"><path id="id-D6z1nYkh17" d="M32.72-28L38.28-28L32.72 0L26.64 0L29.92-16.64L19.24-2.96L16.36-2.96L10.60-16.80L7.24 0L1.16 0L6.76-28L12.04-28L19.04-10.56L32.72-28Z M58.68-21.52L64.92-21.52L60.64 0L54.72 0L55.16-2.32Q53.76-1 51.96-0.34Q50.16 0.32 48.16 0.32L48.16 0.32Q44.64 0.32 42.54-1.60Q40.44-3.52 40.44-7L40.44-7Q40.44-8.32 40.72-9.60L40.72-9.60L43.08-21.52L49.32-21.52L47.04-10Q46.88-9.24 46.88-8.44L46.88-8.44Q46.88-5.08 50.48-5.08L50.48-5.08Q52.84-5.08 54.38-6.46Q55.92-7.84 56.48-10.60L56.48-10.60L58.68-21.52Z M66.44 0L72.36-29.68L78.60-29.68L72.68 0L66.44 0Z M89.84 0.32Q86.52 0.32 84.04-0.88Q81.56-2.08 80.22-4.26Q78.88-6.44 78.88-9.32L78.88-9.32Q78.88-12.88 80.56-15.72Q82.24-18.56 85.24-20.20Q88.24-21.84 92.00-21.84L92.00-21.84Q95.44-21.84 97.94-20.42Q100.44-19 101.68-16.40L101.68-16.40L96.40-13.76Q95.00-16.68 91.60-16.68L91.60-16.68Q89.76-16.68 88.30-15.78Q86.84-14.88 86.02-13.28Q85.20-11.68 85.20-9.64L85.20-9.64Q85.20-7.44 86.52-6.14Q87.84-4.84 90.20-4.84L90.20-4.84Q93.64-4.84 95.48-7.72L95.48-7.72L100.08-4.84Q98.52-2.40 95.82-1.04Q93.12 0.32 89.84 0.32L89.84 0.32Z M118.76-21.84Q122.36-21.84 124.48-19.92Q126.60-18 126.60-14.48L126.60-14.48Q126.60-13.20 126.32-11.92L126.32-11.92L123.92 0L117.68 0L120.00-11.52Q120.16-12.20 120.16-13L120.16-13Q120.16-14.68 119.24-15.56Q118.32-16.44 116.48-16.44L116.48-16.44Q114.08-16.44 112.50-15.06Q110.92-13.68 110.36-10.92L110.36-10.92L108.20 0L101.96 0L107.88-29.68L114.12-29.68L112.12-19.56Q114.88-21.84 118.76-21.84L118.76-21.84Z M130.00 0L135.60-28L142.12-28L136.52 0L130.00 0Z M150.56 0.32Q147.76 0.32 145.26-0.30Q142.76-0.92 141.36-1.92L141.36-1.92L143.76-6.44Q145.16-5.52 147.18-4.96Q149.20-4.40 151.24-4.40L151.24-4.40Q153.36-4.40 154.40-4.94Q155.44-5.48 155.44-6.48L155.44-6.48Q155.44-7.28 154.52-7.64Q153.60-8 151.56-8.40L151.56-8.40Q149.24-8.84 147.74-9.36Q146.24-9.88 145.14-11.06Q144.04-12.24 144.04-14.28L144.04-14.28Q144.04-17.84 147.02-19.84Q150.00-21.84 154.84-21.84L154.84-21.84Q157.08-21.84 159.20-21.36Q161.32-20.88 162.80-20.04L162.80-20.04L160.56-15.48Q157.92-17.12 154.20-17.12L154.20-17.12Q152.16-17.12 151.10-16.52Q150.04-15.92 150.04-15L150.04-15Q150.04-14.16 150.96-13.78Q151.88-13.40 154.04-12.96L154.04-12.96Q156.32-12.52 157.78-12.02Q159.24-11.52 160.32-10.36Q161.40-9.20 161.40-7.20L161.40-7.20Q161.40-3.60 158.38-1.64Q155.36 0.32 150.56 0.32L150.56 0.32Z M187.88-14.44Q189.68-13.72 190.66-12.30Q191.64-10.88 191.64-8.84L191.64-8.84Q191.64-4.48 188.20-2.24Q184.76 0 179.04 0L179.04 0L164.36 0L169.96-28L183.48-28Q188.00-28 190.44-26.34Q192.88-24.68 192.88-21.60L192.88-21.60Q192.88-19.04 191.54-17.22Q190.20-15.40 187.88-14.44L187.88-14.44ZM181.96-23.12L175.40-23.12L174.08-16.52L180.68-16.52Q183.24-16.52 184.66-17.54Q186.08-18.56 186.08-20.48L186.08-20.48Q186.08-23.12 181.96-23.12L181.96-23.12ZM179.44-4.88Q182.16-4.88 183.68-5.92Q185.20-6.96 185.20-8.92L185.20-8.92Q185.20-11.80 181.00-11.80L181.00-11.80L173.16-11.80L171.80-4.88L179.44-4.88Z M217.92-12.36Q217.92-10.88 217.56-9.08L217.56-9.08L201.08-9.08Q201.40-4.68 206.64-4.68L206.64-4.68Q208.28-4.68 209.78-5.20Q211.28-5.72 212.40-6.68L212.40-6.68L215.00-2.56Q213.20-1.12 210.88-0.40Q208.56 0.32 206.00 0.32L206.00 0.32Q202.68 0.32 200.18-0.86Q197.68-2.04 196.34-4.24Q195.00-6.44 195.00-9.32L195.00-9.32Q195.00-12.88 196.62-15.74Q198.24-18.60 201.12-20.22Q204.00-21.84 207.68-21.84L207.68-21.84Q210.80-21.84 213.10-20.68Q215.40-19.52 216.66-17.36Q217.92-15.20 217.92-12.36L217.92-12.36ZM207.40-17.16Q205.20-17.16 203.68-15.98Q202.16-14.80 201.52-12.72L201.52-12.72L212.20-12.72Q212.20-14.80 210.90-15.98Q209.60-17.16 207.40-17.16L207.40-17.16Z M229.88-16.24L228.16-7.60Q228.08-7.28 228.08-6.72L228.08-6.72Q228.08-4.64 230.36-4.64L230.36-4.64Q231.60-4.64 232.88-5.40L232.88-5.40L233.80-0.96Q231.72 0.32 228.44 0.32L228.44 0.32Q225.40 0.32 223.56-1.28Q221.72-2.88 221.72-5.68L221.72-5.68Q221.72-6.48 221.92-7.56L221.92-7.56L223.64-16.24L220.32-16.24L221.28-21.04L224.60-21.04L225.64-26.28L231.88-26.28L230.84-21.04L236.20-21.04L235.24-16.24L229.88-16.24Z M246.80-16.24L245.08-7.60Q245.00-7.28 245.00-6.72L245.00-6.72Q245.00-4.64 247.28-4.64L247.28-4.64Q248.52-4.64 249.80-5.40L249.80-5.40L250.72-0.96Q248.64 0.32 245.36 0.32L245.36 0.32Q242.32 0.32 240.48-1.28Q238.64-2.88 238.64-5.68L238.64-5.68Q238.64-6.48 238.84-7.56L238.84-7.56L240.56-16.24L237.24-16.24L238.20-21.04L241.52-21.04L242.56-26.28L248.80-26.28L247.76-21.04L253.12-21.04L252.16-16.24L246.80-16.24Z M276.68-12.36Q276.68-10.88 276.32-9.08L276.32-9.08L259.84-9.08Q260.16-4.68 265.40-4.68L265.40-4.68Q267.04-4.68 268.54-5.20Q270.04-5.72 271.16-6.68L271.16-6.68L273.76-2.56Q271.96-1.12 269.64-0.40Q267.32 0.32 264.76 0.32L264.76 0.32Q261.44 0.32 258.94-0.86Q256.44-2.04 255.10-4.24Q253.76-6.44 253.76-9.32L253.76-9.32Q253.76-12.88 255.38-15.74Q257.00-18.60 259.88-20.22Q262.76-21.84 266.44-21.84L266.44-21.84Q269.56-21.84 271.86-20.68Q274.16-19.52 275.42-17.36Q276.68-15.20 276.68-12.36L276.68-12.36ZM266.16-17.16Q263.96-17.16 262.44-15.98Q260.92-14.80 260.28-12.72L260.28-12.72L270.96-12.72Q270.96-14.80 269.66-15.98Q268.36-17.16 266.16-17.16L266.16-17.16Z M288.12-18.96Q289.52-20.48 291.50-21.16Q293.48-21.84 296.16-21.84L296.16-21.84L295.04-16.08Q293.92-16.16 293.60-16.16L293.60-16.16Q290.76-16.16 289.06-14.76Q287.36-13.36 286.76-10.40L286.76-10.40L284.68 0L278.44 0L282.72-21.52L288.64-21.52L288.12-18.96Z M298.12 0.32Q296.52 0.32 295.48-0.70Q294.44-1.72 294.44-3.28L294.44-3.28Q294.44-5.12 295.64-6.28Q296.84-7.44 298.60-7.44L298.60-7.44Q300.20-7.44 301.22-6.44Q302.24-5.44 302.24-3.84L302.24-3.84Q302.24-2.04 301.02-0.86Q299.80 0.32 298.12 0.32L298.12 0.32Z M317.12 0.32Q313.80 0.32 311.32-0.88Q308.84-2.08 307.50-4.26Q306.16-6.44 306.16-9.32L306.16-9.32Q306.16-12.88 307.84-15.72Q309.52-18.56 312.52-20.20Q315.52-21.84 319.28-21.84L319.28-21.84Q322.72-21.84 325.22-20.42Q327.72-19 328.96-16.40L328.96-16.40L323.68-13.76Q322.28-16.68 318.88-16.68L318.88-16.68Q317.04-16.68 315.58-15.78Q314.12-14.88 313.30-13.28Q312.48-11.68 312.48-9.64L312.48-9.64Q312.48-7.44 313.80-6.14Q315.12-4.84 317.48-4.84L317.48-4.84Q320.92-4.84 322.76-7.72L322.76-7.72L327.36-4.84Q325.80-2.40 323.10-1.04Q320.40 0.32 317.12 0.32L317.12 0.32Z M340.36 0.32Q337.12 0.32 334.66-0.88Q332.20-2.08 330.86-4.26Q329.52-6.44 329.52-9.32L329.52-9.32Q329.52-12.88 331.20-15.72Q332.88-18.56 335.84-20.20Q338.80-21.84 342.52-21.84L342.52-21.84Q345.80-21.84 348.24-20.64Q350.68-19.44 352.02-17.26Q353.36-15.08 353.36-12.20L353.36-12.20Q353.36-8.64 351.70-5.80Q350.04-2.96 347.06-1.32Q344.08 0.32 340.36 0.32L340.36 0.32ZM340.76-4.84Q342.56-4.84 344.00-5.74Q345.44-6.64 346.24-8.24Q347.04-9.84 347.04-11.92L347.04-11.92Q347.04-14.12 345.76-15.40Q344.48-16.68 342.16-16.68L342.16-16.68Q340.32-16.68 338.88-15.78Q337.44-14.88 336.64-13.28Q335.84-11.68 335.84-9.60L335.84-9.60Q335.84-7.40 337.14-6.12Q338.44-4.84 340.76-4.84L340.76-4.84Z M386.56-21.84Q390.08-21.84 392.16-19.94Q394.24-18.04 394.24-14.56L394.24-14.56Q394.24-13.28 393.96-11.92L393.96-11.92L391.60 0L385.36 0L387.64-11.48Q387.80-12.28 387.80-13.12L387.80-13.12Q387.80-14.76 386.94-15.60Q386.08-16.44 384.40-16.44L384.40-16.44Q379.88-16.44 378.76-11.04L378.76-11.04L376.56 0L370.32 0L372.60-11.48Q372.76-12.28 372.76-13.08L372.76-13.08Q372.76-14.72 371.90-15.58Q371.04-16.44 369.36-16.44L369.36-16.44Q364.84-16.44 363.68-10.96L363.68-10.96L361.52 0L355.28 0L359.56-21.52L365.48-21.52L365.00-19.28Q367.80-21.84 371.76-21.84L371.76-21.84Q374.00-21.84 375.74-20.94Q377.48-20.04 378.36-18.32L378.36-18.32Q379.92-20.04 382.00-20.94Q384.08-21.84 386.56-21.84L386.56-21.84Z"/></g>
</svg>
</g><g opacity="0.2" transform="rotate(0 646.3373 402.999)">
<svg width="51.0649" height="31.502" x="646.3373" y="402.999" version="1.1" preserveAspectRatio="none" viewBox="3.944340229034424 15.84000015258789 62.111324310302734 38.32002639770508">
  <g transform="matrix(1 0 0 1 0 0)" class="aIptOCySncolors-0"><g><path d="M62.46289,25.38193l-0.00098,0.00098L62.46289,25.38193z"></path><g><g><path d="M29.7002,48.35654c-0.125,0.21191-0.09375,0.49609,0.07031,0.66699c0.15234,0.16504,0.32813,0.18652,0.41992,0.18652     c0.08594,0,0.25098-0.01953,0.39746-0.14941l10.19141-9.18066h-6.12305L29.7002,48.35654z M57.31543,41.72958     c-2.03418,0-3.68945,1.65527-3.68945,3.69043c0,2.0293,1.65527,3.67969,3.68945,3.67969     c2.03516,0,3.69043-1.65039,3.69043-3.67969C61.00586,43.38486,59.35059,41.72958,57.31543,41.72958z"></path><path d="M57.31567,36.67001c-2.27002,0-4.34009,0.88-5.89001,2.31l-2.31995-1.40778l14.27002-11.00226     c0.40991-0.31,0.56995-0.83997,0.3999-1.32996c-0.15991-0.49005-0.60999-0.81-1.12988-0.81H29.58569     c-0.42004,0-0.75,0.33997-0.75,0.75v12.44995c0,0.41003,0.32996,0.75,0.75,0.75h2.46887L27.10571,46.84     c-0.79004,1.34998-0.59009,3.09998,0.47998,4.25c0.69995,0.73999,1.6499,1.12,2.60999,1.12     c0.85999,0,1.70996-0.29999,2.39001-0.90997l14.33813-12.92004h0.60718l2.85474,1.73004     c-1.13013,1.46997-1.81006,3.31-1.81006,5.31c0,4.82001,3.91992,8.73999,8.73999,8.73999s8.73999-3.91998,8.73999-8.73999     C66.05566,40.59,62.13574,36.67001,57.31567,36.67001z M31.58569,50.18002c-0.84009,0.75-2.14001,0.69995-2.90002-0.12     c-0.63-0.66003-0.73999-1.68005-0.28003-2.46002l5.39001-9.22003h10.89001L31.58569,50.18002z M57.31567,50.60001     c-2.85999,0-5.18994-2.32001-5.18994-5.17999s2.32996-5.19,5.18994-5.19s5.18994,2.33002,5.18994,5.19     S60.17566,50.60001,57.31567,50.60001z"></path><path d="M57.31567,41.73001c-2.03003,0-3.68994,1.64996-3.68994,3.69c0,2.02997,1.65991,3.67999,3.68994,3.67999     s3.68994-1.65002,3.68994-3.67999C61.00562,43.37997,59.3457,41.73001,57.31567,41.73001z"></path></g><path d="M29.28809,30.74814c0.21973,0,0.4375-0.09668,0.58496-0.28125c0.25977-0.32324,0.20703-0.79492-0.11621-1.05371    L14.49609,17.19052c-0.13281-0.10742-0.29785-0.16504-0.46875-0.16504H4.69434c-0.41406,0-0.75,0.33594-0.75,0.75    s0.33594,0.75,0.75,0.75h9.06934L28.81934,30.5831C28.95801,30.69443,29.12305,30.74814,29.28809,30.74814z"></path></g><g><path d="M60.90564,22.67001c0,0.08997,0,0.17999-0.00989,0.26001H31.96558c0.70007-1.98004,2.61011-3.36005,4.74011-3.36005    c1.10999,0,2.19006,0.37,3.05994,1.04004c1.21997-1.37,3.19006-1.98004,4.97998-1.53003    C45.4856,17.16,47.35571,15.84,49.46558,15.84c1.72009,0,3.30005,0.87,4.22009,2.28998c0.67004-0.32996,1.41003-0.5,2.18005-0.5    C58.64575,17.62997,60.90564,19.88998,60.90564,22.67001z"></path></g></g></g>
</svg>
</g></svg>